<svg xmlns="http://www.w3.org/2000/svg" width="13.95" height="7.745" viewBox="0 0 13.95 7.745"><g transform="translate(-170.823 -44.25)"><path d="M109.391,6.356,103.18.146a.518.518,0,0,0-.732.732l5.845,5.845-5.845,5.845a.517.517,0,0,0,.732.732l6.211-6.211A.518.518,0,0,0,109.391,6.356Z" transform="translate(184.524 -57.797) rotate(90)"/><path d="M102.821-.25a.764.764,0,0,1,.533.215l6.214,6.214a.768.768,0,0,1,0,1.085l-6.211,6.211a.767.767,0,0,1-1.085-1.085l5.668-5.668-5.668-5.668a.766.766,0,0,1,0-1.07A.761.761,0,0,1,102.821-.25Zm-.006,13.45a.266.266,0,0,0,.189-.078l6.211-6.211a.268.268,0,0,0,0-.378L103,.322a.268.268,0,0,0-.375.381l6.018,6.018-6.022,6.022a.267.267,0,0,0,.189.457Z" transform="translate(184.524 -57.797) rotate(90)"/></g></svg>